<?xml version="1.0" encoding="UTF-8" standalone="no"?>
<!DOCTYPE svg PUBLIC "-//W3C//DTD SVG 1.1//EN"
 "http://www.w3.org/Graphics/SVG/1.1/DTD/svg11.dtd">
<!-- Generated by graphviz version 2.40.1 (20161225.0304)
 -->
<!-- Title: state transitions Pages: 1 -->
<svg width="394pt" height="434pt"
 viewBox="0.00 0.00 394.03 434.00" xmlns="http://www.w3.org/2000/svg" xmlns:xlink="http://www.w3.org/1999/xlink">
<g id="graph0" class="graph" transform="scale(1 1) rotate(0) translate(4 430)">
<title>state transitions</title>
<polygon fill="#ffffff" stroke="transparent" points="-4,4 -4,-430 390.026,-430 390.026,4 -4,4"/>
<g id="clust1" class="cluster state regular">
<title>cluster_next_state</title>
<path fill="none" stroke="#000000" stroke-width="2" d="M20,-8C20,-8 332,-8 332,-8 338,-8 344,-14 344,-20 344,-20 344,-406 344,-406 344,-412 338,-418 332,-418 332,-418 20,-418 20,-418 14,-418 8,-412 8,-406 8,-406 8,-20 8,-20 8,-14 14,-8 20,-8"/>
<text text-anchor="start" x="148.8208" y="-399.2" font-family="Helvetica,sans-Serif" font-size="12.00" fill="#000000">next_state</text>
</g>
<!-- next_state -->
<!-- IDLE -->
<g id="node2" class="node state regular">
<title>IDLE</title>
<polygon fill="#ffffff" fill-opacity="0.003922" stroke="transparent" stroke-width="2" points="121,-380 65,-380 65,-344 121,-344 121,-380"/>
<text text-anchor="start" x="79.6644" y="-358.2" font-family="Helvetica,sans-Serif" font-size="12.00" fill="#000000">IDLE</text>
<path fill="none" stroke="#000000" stroke-width="2" d="M77.3333,-345C77.3333,-345 108.6667,-345 108.6667,-345 114.3333,-345 120,-350.6667 120,-356.3333 120,-356.3333 120,-367.6667 120,-367.6667 120,-373.3333 114.3333,-379 108.6667,-379 108.6667,-379 77.3333,-379 77.3333,-379 71.6667,-379 66,-373.3333 66,-367.6667 66,-367.6667 66,-356.3333 66,-356.3333 66,-350.6667 71.6667,-345 77.3333,-345"/>
</g>
<!-- IDLE&#45;&gt;IDLE -->
<g id="edge2" class="edge transition">
<title>IDLE&#45;&gt;IDLE</title>
<path fill="none" stroke="#000000" d="M121.0183,-366.8247C132.888,-367.1883 143,-365.5801 143,-362 143,-359.5387 138.2205,-358.0094 131.3762,-357.4121"/>
<polygon fill="#000000" stroke="#000000" points="131.0957,-353.9049 121.0183,-357.1753 130.9356,-360.903 131.0957,-353.9049"/>
<text text-anchor="start" x="143" y="-359" font-family="Helvetica,sans-Serif" font-size="10.00" fill="#000000">not (start) &#160;&#160;</text>
</g>
<!-- CONV_1 -->
<g id="node3" class="node state regular">
<title>CONV_1</title>
<polygon fill="#ffffff" fill-opacity="0.003922" stroke="transparent" stroke-width="2" points="86,-298 16,-298 16,-262 86,-262 86,-298"/>
<text text-anchor="start" x="26.9976" y="-276.2" font-family="Helvetica,sans-Serif" font-size="12.00" fill="#000000">CONV_1</text>
<path fill="none" stroke="#000000" stroke-width="2" d="M28.3333,-263C28.3333,-263 73.6667,-263 73.6667,-263 79.3333,-263 85,-268.6667 85,-274.3333 85,-274.3333 85,-285.6667 85,-285.6667 85,-291.3333 79.3333,-297 73.6667,-297 73.6667,-297 28.3333,-297 28.3333,-297 22.6667,-297 17,-291.3333 17,-285.6667 17,-285.6667 17,-274.3333 17,-274.3333 17,-268.6667 22.6667,-263 28.3333,-263"/>
</g>
<!-- IDLE&#45;&gt;CONV_1 -->
<g id="edge1" class="edge transition">
<title>IDLE&#45;&gt;CONV_1</title>
<path fill="none" stroke="#000000" d="M83.6788,-343.8015C78.1869,-333.0791 71.1323,-319.306 64.9843,-307.3026"/>
<polygon fill="#000000" stroke="#000000" points="67.9691,-305.4524 60.2951,-298.1476 61.7388,-308.6436 67.9691,-305.4524"/>
<text text-anchor="start" x="74" y="-318" font-family="Helvetica,sans-Serif" font-size="10.00" fill="#000000">start &#160;&#160;</text>
</g>
<!-- CONV_1&#45;&gt;CONV_1 -->
<g id="edge4" class="edge transition">
<title>CONV_1&#45;&gt;CONV_1</title>
<path fill="none" stroke="#000000" d="M86.0666,-284.8738C98.2008,-284.9254 108,-283.3008 108,-280 108,-277.6791 103.1554,-276.187 96.061,-275.5234"/>
<polygon fill="#000000" stroke="#000000" points="96.1978,-272.0262 86.0666,-275.1262 95.9197,-279.0207 96.1978,-272.0262"/>
<text text-anchor="start" x="108" y="-277" font-family="Helvetica,sans-Serif" font-size="10.00" fill="#000000">not (conv_done_ff_1 == 6&#39;b111111) &#160;&#160;</text>
</g>
<!-- CONV_2 -->
<g id="node4" class="node state regular">
<title>CONV_2</title>
<polygon fill="#ffffff" fill-opacity="0.003922" stroke="transparent" stroke-width="2" points="86,-216 16,-216 16,-180 86,-180 86,-216"/>
<text text-anchor="start" x="26.9976" y="-194.2" font-family="Helvetica,sans-Serif" font-size="12.00" fill="#000000">CONV_2</text>
<path fill="none" stroke="#000000" stroke-width="2" d="M28.3333,-181C28.3333,-181 73.6667,-181 73.6667,-181 79.3333,-181 85,-186.6667 85,-192.3333 85,-192.3333 85,-203.6667 85,-203.6667 85,-209.3333 79.3333,-215 73.6667,-215 73.6667,-215 28.3333,-215 28.3333,-215 22.6667,-215 17,-209.3333 17,-203.6667 17,-203.6667 17,-192.3333 17,-192.3333 17,-186.6667 22.6667,-181 28.3333,-181"/>
</g>
<!-- CONV_1&#45;&gt;CONV_2 -->
<g id="edge3" class="edge transition">
<title>CONV_1&#45;&gt;CONV_2</title>
<path fill="none" stroke="#000000" d="M51,-261.8015C51,-251.3976 51,-238.1215 51,-226.3768"/>
<polygon fill="#000000" stroke="#000000" points="54.5001,-226.1476 51,-216.1476 47.5001,-226.1476 54.5001,-226.1476"/>
<text text-anchor="start" x="51" y="-236" font-family="Helvetica,sans-Serif" font-size="10.00" fill="#000000">conv_done_ff_1 == 6&#39;b111111 &#160;&#160;</text>
</g>
<!-- CONV_2&#45;&gt;CONV_2 -->
<g id="edge6" class="edge transition">
<title>CONV_2&#45;&gt;CONV_2</title>
<path fill="none" stroke="#000000" d="M86.0666,-202.8738C98.2008,-202.9254 108,-201.3008 108,-198 108,-195.6791 103.1554,-194.187 96.061,-193.5234"/>
<polygon fill="#000000" stroke="#000000" points="96.1978,-190.0262 86.0666,-193.1262 95.9197,-197.0207 96.1978,-190.0262"/>
<text text-anchor="start" x="108" y="-195" font-family="Helvetica,sans-Serif" font-size="10.00" fill="#000000">not (conv_cnt == 8&#39;d13) &#160;&#160;</text>
</g>
<!-- FC -->
<g id="node5" class="node state regular">
<title>FC</title>
<polygon fill="#ffffff" fill-opacity="0.003922" stroke="transparent" stroke-width="2" points="72,-134 16,-134 16,-98 72,-98 72,-134"/>
<text text-anchor="start" x="36.0032" y="-112.2" font-family="Helvetica,sans-Serif" font-size="12.00" fill="#000000">FC</text>
<path fill="none" stroke="#000000" stroke-width="2" d="M28.3333,-99C28.3333,-99 59.6667,-99 59.6667,-99 65.3333,-99 71,-104.6667 71,-110.3333 71,-110.3333 71,-121.6667 71,-121.6667 71,-127.3333 65.3333,-133 59.6667,-133 59.6667,-133 28.3333,-133 28.3333,-133 22.6667,-133 17,-127.3333 17,-121.6667 17,-121.6667 17,-110.3333 17,-110.3333 17,-104.6667 22.6667,-99 28.3333,-99"/>
</g>
<!-- CONV_2&#45;&gt;FC -->
<g id="edge5" class="edge transition">
<title>CONV_2&#45;&gt;FC</title>
<path fill="none" stroke="#000000" d="M49.4465,-179.8015C48.5583,-169.3976 47.425,-156.1215 46.4224,-144.3768"/>
<polygon fill="#000000" stroke="#000000" points="49.8872,-143.8136 45.5492,-134.1476 42.9125,-144.4091 49.8872,-143.8136"/>
<text text-anchor="start" x="47" y="-154" font-family="Helvetica,sans-Serif" font-size="10.00" fill="#000000">conv_cnt == 8&#39;d13 &#160;&#160;</text>
</g>
<!-- FC&#45;&gt;FC -->
<g id="edge8" class="edge transition">
<title>FC&#45;&gt;FC</title>
<path fill="none" stroke="#000000" d="M72.0183,-120.8247C83.888,-121.1883 94,-119.5801 94,-116 94,-113.5387 89.2205,-112.0094 82.3762,-111.4121"/>
<polygon fill="#000000" stroke="#000000" points="82.0957,-107.9049 72.0183,-111.1753 81.9356,-114.903 82.0957,-107.9049"/>
<text text-anchor="start" x="94" y="-113" font-family="Helvetica,sans-Serif" font-size="10.00" fill="#000000">not (fc_ovalid == 10&#39;b1000000000) &#160;&#160;</text>
</g>
<!-- CLASSES -->
<g id="node6" class="node state regular">
<title>CLASSES</title>
<polygon fill="#ffffff" fill-opacity="0.003922" stroke="transparent" stroke-width="2" points="156.5,-52 79.5,-52 79.5,-16 156.5,-16 156.5,-52"/>
<text text-anchor="start" x="90.8262" y="-30.2" font-family="Helvetica,sans-Serif" font-size="12.00" fill="#000000">CLASSES</text>
<path fill="none" stroke="#000000" stroke-width="2" d="M91.8333,-17C91.8333,-17 144.1667,-17 144.1667,-17 149.8333,-17 155.5,-22.6667 155.5,-28.3333 155.5,-28.3333 155.5,-39.6667 155.5,-39.6667 155.5,-45.3333 149.8333,-51 144.1667,-51 144.1667,-51 91.8333,-51 91.8333,-51 86.1667,-51 80.5,-45.3333 80.5,-39.6667 80.5,-39.6667 80.5,-28.3333 80.5,-28.3333 80.5,-22.6667 86.1667,-17 91.8333,-17"/>
</g>
<!-- FC&#45;&gt;CLASSES -->
<g id="edge7" class="edge transition">
<title>FC&#45;&gt;CLASSES</title>
<path fill="none" stroke="#000000" d="M60.423,-97.8015C70.4825,-86.6545 83.5176,-72.2103 94.6403,-59.8851"/>
<polygon fill="#000000" stroke="#000000" points="97.5216,-61.9164 101.6229,-52.1476 92.3248,-57.2267 97.5216,-61.9164"/>
<text text-anchor="start" x="85" y="-72" font-family="Helvetica,sans-Serif" font-size="10.00" fill="#000000">fc_ovalid == 10&#39;b1000000000 &#160;&#160;</text>
</g>
<!-- CLASSES&#45;&gt;IDLE -->
<g id="edge9" class="edge transition">
<title>CLASSES&#45;&gt;IDLE</title>
<path fill="none" stroke="#000000" d="M156.6593,-37.9984C192.4081,-44.0895 242.94,-59.4281 263,-98 349.0031,-263.3694 305.3838,-263.9412 281,-298 263.3396,-322.6677 181.1182,-343.6647 131.4439,-354.3806"/>
<polygon fill="#000000" stroke="#000000" points="130.4332,-351.0169 121.3729,-356.5089 131.8806,-357.8656 130.4332,-351.0169"/>
<text text-anchor="start" x="311" y="-195" font-family="Helvetica,sans-Serif" font-size="10.00" fill="#000000">compare_done &#160;&#160;</text>
</g>
<!-- CLASSES&#45;&gt;CLASSES -->
<g id="edge10" class="edge transition">
<title>CLASSES&#45;&gt;CLASSES</title>
<path fill="none" stroke="#000000" d="M156.6945,-38.8723C168.8838,-38.7979 178.5,-37.1738 178.5,-34 178.5,-31.7684 173.7459,-30.303 166.686,-29.6037"/>
<polygon fill="#000000" stroke="#000000" points="166.8497,-26.1076 156.6945,-29.1277 166.5166,-33.0997 166.8497,-26.1076"/>
<text text-anchor="start" x="178.5" y="-31" font-family="Helvetica,sans-Serif" font-size="10.00" fill="#000000">not (compare_done) &#160;&#160;</text>
</g>
</g>
</svg>
