<?xml version="1.0" encoding="UTF-8" standalone="no"?>
<!DOCTYPE svg PUBLIC "-//W3C//DTD SVG 1.1//EN"
 "http://www.w3.org/Graphics/SVG/1.1/DTD/svg11.dtd">
<!-- Generated by graphviz version 2.40.1 (20161225.0304)
 -->
<!-- Title: state transitions Pages: 1 -->
<svg width="710pt" height="448pt"
 viewBox="0.00 0.00 710.00 448.00" xmlns="http://www.w3.org/2000/svg" xmlns:xlink="http://www.w3.org/1999/xlink">
<g id="graph0" class="graph" transform="scale(1 1) rotate(0) translate(4 444)">
<title>state transitions</title>
<polygon fill="#ffffff" stroke="transparent" points="-4,4 -4,-444 706,-444 706,4 -4,4"/>
<g id="clust1" class="cluster state regular">
<title>cluster_next_state</title>
<path fill="none" stroke="#000000" stroke-width="2" d="M20,-8C20,-8 682,-8 682,-8 688,-8 694,-14 694,-20 694,-20 694,-420 694,-420 694,-426 688,-432 682,-432 682,-432 20,-432 20,-432 14,-432 8,-426 8,-420 8,-420 8,-20 8,-20 8,-14 14,-8 20,-8"/>
<text text-anchor="start" x="323.8208" y="-413.2" font-family="Helvetica,sans-Serif" font-size="12.00" fill="#000000">next_state</text>
</g>
<!-- next_state -->
<!-- IDLE -->
<g id="node2" class="node state regular">
<title>IDLE</title>
<polygon fill="#ffffff" fill-opacity="0.003922" stroke="transparent" stroke-width="2" points="260,-394 204,-394 204,-358 260,-358 260,-394"/>
<text text-anchor="start" x="218.6644" y="-372.2" font-family="Helvetica,sans-Serif" font-size="12.00" fill="#000000">IDLE</text>
<path fill="none" stroke="#000000" stroke-width="2" d="M216.3333,-359C216.3333,-359 247.6667,-359 247.6667,-359 253.3333,-359 259,-364.6667 259,-370.3333 259,-370.3333 259,-381.6667 259,-381.6667 259,-387.3333 253.3333,-393 247.6667,-393 247.6667,-393 216.3333,-393 216.3333,-393 210.6667,-393 205,-387.3333 205,-381.6667 205,-381.6667 205,-370.3333 205,-370.3333 205,-364.6667 210.6667,-359 216.3333,-359"/>
</g>
<!-- IDLE&#45;&gt;IDLE -->
<g id="edge2" class="edge transition">
<title>IDLE&#45;&gt;IDLE</title>
<path fill="none" stroke="#000000" d="M260.0183,-378.4124C271.888,-378.5942 282,-377.79 282,-376 282,-374.7693 277.2205,-374.0047 270.3762,-373.706"/>
<polygon fill="#000000" stroke="#000000" points="270.0576,-370.2023 260.0183,-373.5876 269.9776,-377.2018 270.0576,-370.2023"/>
<text text-anchor="start" x="282" y="-379" font-family="Helvetica,sans-Serif" font-size="10.00" fill="#000000">not (valid_pre == 1) &#160;&#160;</text>
<text text-anchor="start" x="282" y="-367" font-family="Helvetica,sans-Serif" font-size="10.00" fill="#000000">en &#160;&#160;</text>
</g>
<!-- IDLE&#45;&gt;IDLE -->
<g id="edge3" class="edge transition">
<title>IDLE&#45;&gt;IDLE</title>
<path fill="none" stroke="#000000" d="M260.055,-379.3751C303.8952,-382.1778 377.028,-381.0527 377.028,-376 377.028,-371.3223 314.348,-370.0109 270.2585,-372.0658"/>
<polygon fill="#000000" stroke="#000000" points="269.8485,-368.5829 260.055,-372.6249 270.2315,-375.5724 269.8485,-368.5829"/>
<text text-anchor="start" x="377.028" y="-373" font-family="Helvetica,sans-Serif" font-size="10.00" fill="#000000">not (en) &#160;&#160;</text>
</g>
<!-- PRE -->
<g id="node3" class="node state regular">
<title>PRE</title>
<polygon fill="#ffffff" fill-opacity="0.003922" stroke="transparent" stroke-width="2" points="227,-240 171,-240 171,-204 227,-204 227,-240"/>
<text text-anchor="start" x="186.6658" y="-218.2" font-family="Helvetica,sans-Serif" font-size="12.00" fill="#000000">PRE</text>
<path fill="none" stroke="#000000" stroke-width="2" d="M183.3333,-205C183.3333,-205 214.6667,-205 214.6667,-205 220.3333,-205 226,-210.6667 226,-216.3333 226,-216.3333 226,-227.6667 226,-227.6667 226,-233.3333 220.3333,-239 214.6667,-239 214.6667,-239 183.3333,-239 183.3333,-239 177.6667,-239 172,-233.3333 172,-227.6667 172,-227.6667 172,-216.3333 172,-216.3333 172,-210.6667 177.6667,-205 183.3333,-205"/>
</g>
<!-- IDLE&#45;&gt;PRE -->
<g id="edge1" class="edge transition">
<title>IDLE&#45;&gt;PRE</title>
<path fill="none" stroke="#000000" d="M203.732,-374.6215C158.6763,-371.7668 73.765,-363.4741 55.306,-341 38.3806,-320.3931 40.4565,-303.1496 55.306,-281 78.646,-246.1858 126.6101,-231.8973 160.6959,-226.0437"/>
<polygon fill="#000000" stroke="#000000" points="161.438,-229.4707 170.7861,-224.4845 160.3689,-222.5528 161.438,-229.4707"/>
<text text-anchor="start" x="55" y="-314" font-family="Helvetica,sans-Serif" font-size="10.00" fill="#000000">valid_pre == 1 &#160;&#160;</text>
<text text-anchor="start" x="55" y="-302" font-family="Helvetica,sans-Serif" font-size="10.00" fill="#000000">en &#160;&#160;</text>
</g>
<!-- PRE&#45;&gt;IDLE -->
<g id="edge5" class="edge transition">
<title>PRE&#45;&gt;IDLE</title>
<path fill="none" stroke="#000000" d="M187.1005,-240.1295C172.7122,-264.55 152.6094,-308.6738 171.287,-341 176.6376,-350.2605 185.4724,-357.2881 194.7676,-362.5244"/>
<polygon fill="#000000" stroke="#000000" points="193.2135,-365.6604 203.722,-367.0103 196.3489,-359.4019 193.2135,-365.6604"/>
<text text-anchor="start" x="171" y="-332" font-family="Helvetica,sans-Serif" font-size="10.00" fill="#000000">valid_pre == 0&amp;&amp; &#160;&#160;</text>
<text text-anchor="start" x="171" y="-320" font-family="Helvetica,sans-Serif" font-size="10.00" fill="#000000">((cout == 1&amp;&amp;(cout_us == 2||cout_us == 0||cout_us == 1)) &#160;&#160;</text>
<text text-anchor="start" x="171" y="-308" font-family="Helvetica,sans-Serif" font-size="10.00" fill="#000000">||(cout == 0&amp;&amp;(cout_us == 77||cout_us == 78||cout_us == 79)) &#160;&#160;</text>
<text text-anchor="start" x="171" y="-296" font-family="Helvetica,sans-Serif" font-size="10.00" fill="#000000">||(cout == 4&amp;&amp;(cout_us == 39||cout_us == 40||cout_us == 41)) &#160;&#160;</text>
<text text-anchor="start" x="171" y="-284" font-family="Helvetica,sans-Serif" font-size="10.00" fill="#000000">||(cout == 3&amp;&amp;(cout_us == 39||cout_us == 40||cout_us == 41))) &#160;&#160;</text>
</g>
<!-- PRE&#45;&gt;IDLE -->
<g id="edge6" class="edge transition">
<title>PRE&#45;&gt;IDLE</title>
<path fill="none" stroke="#000000" d="M227.0865,-224.0983C288.0447,-229.2963 429.3107,-245.0403 458,-281 474.6308,-301.8453 475.3534,-320.7523 458,-341 445.9405,-355.0709 331.2683,-367.2336 270.0671,-372.7875"/>
<polygon fill="#000000" stroke="#000000" points="269.6621,-369.3096 260.0125,-373.6841 270.2839,-376.282 269.6621,-369.3096"/>
<text text-anchor="start" x="470" y="-308" font-family="Helvetica,sans-Serif" font-size="10.00" fill="#000000">valid_next&amp;&amp;(posi_nege&#45;posi_pre)&lt;29 &#160;&#160;</text>
</g>
<!-- PRE&#45;&gt;PRE -->
<g id="edge7" class="edge transition">
<title>PRE&#45;&gt;PRE</title>
<path fill="none" stroke="#000000" d="M227.0183,-231.2783C238.888,-231.9775 249,-228.8848 249,-222 249,-217.2667 244.2205,-214.3258 237.3762,-213.1771"/>
<polygon fill="#000000" stroke="#000000" points="237.1624,-209.6644 227.0183,-212.7217 236.8548,-216.6577 237.1624,-209.6644"/>
<text text-anchor="start" x="249" y="-255" font-family="Helvetica,sans-Serif" font-size="10.00" fill="#000000">not (cout == 7) &#160;&#160;</text>
<text text-anchor="start" x="249" y="-243" font-family="Helvetica,sans-Serif" font-size="10.00" fill="#000000">not (valid_pre == 0&amp;&amp; &#160;&#160;</text>
<text text-anchor="start" x="249" y="-231" font-family="Helvetica,sans-Serif" font-size="10.00" fill="#000000">((cout == 1&amp;&amp;(cout_us == 2||cout_us == 0||cout_us == 1)) &#160;&#160;</text>
<text text-anchor="start" x="249" y="-219" font-family="Helvetica,sans-Serif" font-size="10.00" fill="#000000">||(cout == 0&amp;&amp;(cout_us == 77||cout_us == 78||cout_us == 79)) &#160;&#160;</text>
<text text-anchor="start" x="249" y="-207" font-family="Helvetica,sans-Serif" font-size="10.00" fill="#000000">||(cout == 4&amp;&amp;(cout_us == 39||cout_us == 40||cout_us == 41)) &#160;&#160;</text>
<text text-anchor="start" x="249" y="-195" font-family="Helvetica,sans-Serif" font-size="10.00" fill="#000000">||(cout == 3&amp;&amp;(cout_us == 39||cout_us == 40||cout_us == 41)))) &#160;&#160;</text>
<text text-anchor="start" x="249" y="-183" font-family="Helvetica,sans-Serif" font-size="10.00" fill="#000000">not (valid_next&amp;&amp;(posi_nege&#45;posi_pre)&lt;29) &#160;&#160;</text>
</g>
<!-- DECODER -->
<g id="node4" class="node state regular">
<title>DECODER</title>
<polygon fill="#ffffff" fill-opacity="0.003922" stroke="transparent" stroke-width="2" points="376.5,-134 295.5,-134 295.5,-98 376.5,-98 376.5,-134"/>
<text text-anchor="start" x="306.5042" y="-112.2" font-family="Helvetica,sans-Serif" font-size="12.00" fill="#000000">DECODER</text>
<path fill="none" stroke="#000000" stroke-width="2" d="M307.8333,-99C307.8333,-99 364.1667,-99 364.1667,-99 369.8333,-99 375.5,-104.6667 375.5,-110.3333 375.5,-110.3333 375.5,-121.6667 375.5,-121.6667 375.5,-127.3333 369.8333,-133 364.1667,-133 364.1667,-133 307.8333,-133 307.8333,-133 302.1667,-133 296.5,-127.3333 296.5,-121.6667 296.5,-121.6667 296.5,-110.3333 296.5,-110.3333 296.5,-104.6667 302.1667,-99 307.8333,-99"/>
</g>
<!-- PRE&#45;&gt;DECODER -->
<g id="edge4" class="edge transition">
<title>PRE&#45;&gt;DECODER</title>
<path fill="none" stroke="#000000" d="M222.5511,-203.778C245.0961,-186.3344 279.2713,-159.8923 304.2205,-140.5885"/>
<polygon fill="#000000" stroke="#000000" points="306.5305,-143.2266 312.2977,-134.339 302.2468,-137.6903 306.5305,-143.2266"/>
<text text-anchor="start" x="289" y="-154" font-family="Helvetica,sans-Serif" font-size="10.00" fill="#000000">cout == 7 &#160;&#160;</text>
</g>
<!-- DECODER&#45;&gt;DECODER -->
<g id="edge9" class="edge transition">
<title>DECODER&#45;&gt;DECODER</title>
<path fill="none" stroke="#000000" d="M376.576,-120.8676C388.8812,-120.7456 398.5,-119.123 398.5,-116 398.5,-113.8041 393.7446,-112.3501 386.6437,-111.6378"/>
<polygon fill="#000000" stroke="#000000" points="386.7389,-108.1383 376.576,-111.1324 386.3879,-115.1295 386.7389,-108.1383"/>
<text text-anchor="start" x="398.5" y="-113" font-family="Helvetica,sans-Serif" font-size="10.00" fill="#000000">not (cout == 119) &#160;&#160;</text>
</g>
<!-- DONE -->
<g id="node5" class="node state regular">
<title>DONE</title>
<polygon fill="#ffffff" fill-opacity="0.003922" stroke="transparent" stroke-width="2" points="525,-52 469,-52 469,-16 525,-16 525,-52"/>
<text text-anchor="start" x="479.6684" y="-30.2" font-family="Helvetica,sans-Serif" font-size="12.00" fill="#000000">DONE</text>
<path fill="none" stroke="#000000" stroke-width="2" d="M481.3333,-17C481.3333,-17 512.6667,-17 512.6667,-17 518.3333,-17 524,-22.6667 524,-28.3333 524,-28.3333 524,-39.6667 524,-39.6667 524,-45.3333 518.3333,-51 512.6667,-51 512.6667,-51 481.3333,-51 481.3333,-51 475.6667,-51 470,-45.3333 470,-39.6667 470,-39.6667 470,-28.3333 470,-28.3333 470,-22.6667 475.6667,-17 481.3333,-17"/>
</g>
<!-- DECODER&#45;&gt;DONE -->
<g id="edge8" class="edge transition">
<title>DECODER&#45;&gt;DONE</title>
<path fill="none" stroke="#000000" d="M371.7311,-97.8015C397.918,-84.4641 433.3725,-66.4066 459.8795,-52.9061"/>
<polygon fill="#000000" stroke="#000000" points="461.53,-55.9933 468.8524,-48.3361 458.3531,-49.7558 461.53,-55.9933"/>
<text text-anchor="start" x="427" y="-72" font-family="Helvetica,sans-Serif" font-size="10.00" fill="#000000">cout == 119 &#160;&#160;</text>
</g>
<!-- DONE&#45;&gt;IDLE -->
<g id="edge10" class="edge transition">
<title>DONE&#45;&gt;IDLE</title>
<path fill="none" stroke="#000000" d="M525.2494,-37.3283C577.2823,-43.8439 683,-59.0452 683,-75 683,-157 683,-157 683,-157 683,-239.8576 713.8481,-284.7604 653,-341 625.2302,-366.6666 368.9735,-373.6939 270.3938,-375.4561"/>
<polygon fill="#000000" stroke="#000000" points="270.2035,-371.9588 260.2645,-375.6284 270.3227,-378.9577 270.2035,-371.9588"/>
<text text-anchor="middle" x="684.3895" y="-154" font-family="Helvetica,sans-Serif" font-size="10.00" fill="#000000"> </text>
</g>
</g>
</svg>
